<svg width="1600" height="1000" viewBox="0 0 1600 1000" fill="none" xmlns="http://www.w3.org/2000/svg">
  <rect width="1600" height="1000" fill="#67E8F9"/>
  <path d="M0 0H1600V360C1378 330 1198 372 1024 444C771 548 533 576 276 481C174 443 82 426 0 431V0Z" fill="#0EA5E9"/>
  <path d="M0 330C239 278 437 371 641 443C877 527 1078 504 1306 411C1411 368 1508 348 1600 350V1000H0V330Z" fill="#22D3EE"/>
  <path d="M0 564C209 506 382 556 575 633C826 734 1051 735 1290 636C1418 583 1514 569 1600 579V1000H0V564Z" fill="#A7F3D0" opacity="0.65"/>
  <path d="M0 706C244 642 456 698 682 784C890 863 1094 856 1316 770C1424 728 1522 711 1600 718V1000H0V706Z" fill="#E0F2FE" opacity="0.6"/>
  <circle cx="248" cy="391" r="43" fill="#0F172A" opacity="0.15"/>
  <circle cx="432" cy="476" r="58" fill="#0F172A" opacity="0.13"/>
  <circle cx="744" cy="552" r="48" fill="#0F172A" opacity="0.12"/>
  <circle cx="1044" cy="493" r="64" fill="#0F172A" opacity="0.12"/>
  <circle cx="1270" cy="431" r="42" fill="#0F172A" opacity="0.14"/>
  <path d="M96 202H1496" stroke="white" stroke-opacity="0.45" stroke-width="18"/>
  <path d="M120 230H1470" stroke="#0891B2" stroke-opacity="0.45" stroke-width="10" stroke-dasharray="20 22"/>
</svg>
